<svg width="900" height="1200" viewBox="0 0 900 1200" fill="none" xmlns="http://www.w3.org/2000/svg">
  <defs>
    <linearGradient id="bg" x1="0" y1="0" x2="900" y2="1200" gradientUnits="userSpaceOnUse">
      <stop stop-color="#0b1023"/>
      <stop offset="0.45" stop-color="#1b2545"/>
      <stop offset="0.75" stop-color="#0f172a"/>
      <stop offset="1" stop-color="#0b0f1a"/>
    </linearGradient>
    <radialGradient id="glow" cx="0" cy="0" r="1" gradientUnits="userSpaceOnUse" gradientTransform="translate(180 180) rotate(90) scale(360 360)">
      <stop stop-color="#f97316" stop-opacity="0.8"/>
      <stop offset="1" stop-color="#0b1023" stop-opacity="0"/>
    </radialGradient>
    <linearGradient id="swirl" x1="0" y1="0" x2="1" y2="1">
      <stop offset="0" stop-color="#fbbf24" stop-opacity="0.6"/>
      <stop offset="0.5" stop-color="#f97316" stop-opacity="0.3"/>
      <stop offset="1" stop-color="#1e293b" stop-opacity="0"/>
    </linearGradient>
  </defs>
  <rect width="900" height="1200" fill="url(#bg)"/>
  <rect width="900" height="1200" fill="url(#glow)"/>
  <path d="M-40 260C140 120 360 90 500 190C620 270 700 430 860 520L900 560V0H-40V260Z" fill="#0f172a"/>
  <path d="M-40 520C160 420 320 360 520 420C700 475 760 640 900 720V1200H-40V520Z" fill="#111827"/>
  <path d="M80 980C220 820 420 780 580 880C690 950 760 1060 900 1120V1200H0L80 980Z" fill="#0f172a"/>
  <path d="M120 360C240 260 420 240 540 330C620 390 660 480 760 540" stroke="url(#swirl)" stroke-width="120" stroke-linecap="round"/>
  <circle cx="140" cy="760" r="6" fill="#f8fafc" fill-opacity="0.7"/>
  <circle cx="190" cy="720" r="4" fill="#f8fafc" fill-opacity="0.6"/>
  <circle cx="240" cy="780" r="3" fill="#f8fafc" fill-opacity="0.5"/>
  <circle cx="620" cy="220" r="5" fill="#f8fafc" fill-opacity="0.6"/>
  <circle cx="700" cy="280" r="3" fill="#f8fafc" fill-opacity="0.4"/>
  <circle cx="760" cy="240" r="2" fill="#f8fafc" fill-opacity="0.5"/>
</svg>
